P3
51 51
255
223 130 108
222 128 108
228 137 114
235 148 117
215 111 101
163 63 85
174 72 86
177 73 85
177 74 84
185 82 88
198 91 90
203 96 94
204 100 96
204 98 95
206 99 96
209 102 97
208 101 96
207 101 99
207 102 99
205 102 102
203 99 95
203 101 98
206 99 95
207 100 95
206 102 99
204 98 96
201 97 96
203 97 97
200 96 96
191 90 95
177 78 86
205 106 103
220 133 113
220 126 106
221 129 110
222 128 104
222 127 103
220 130 107
220 131 108
241 189 145
243 199 141
175 85 90
186 89 93
187 92 95
190 91 93
194 94 94
193 93 94
196 96 96
192 91 93
186 96 101
225 134 117
226 130 109
224 129 107
230 143 112
233 142 108
213 106 93
163 60 78
176 68 81
178 72 82
177 70 79
187 81 85
197 89 90
204 94 90
206 97 94
207 98 95
207 97 93
210 100 95
210 100 95
210 98 95
208 99 97
208 99 97
207 98 95
205 98 94
206 99 95
208 101 97
206 99 95
205 98 94
203 96 94
203 94 95
203 97 96
194 91 95
181 81 90
186 86 97
219 125 114
225 134 112
227 135 110
226 133 107
224 129 105
222 127 104
218 127 107
226 147 119
250 208 154
212 144 110
179 81 89
189 89 92
190 92 92
192 93 94
197 94 94
202 97 94
146 57 75
105 33 72
225 130 107
226 131 109
227 136 112
229 142 111
228 136 108
214 107 93
163 59 75
176 69 79
177 71 80
178 70 78
187 79 83
198 88 87
203 93 90
205 96 93
206 96 95
207 96 95
208 97 94
210 96 93
209 97 96
210 98 94
208 93 90
206 94 93
204 95 92
204 95 93
206 99 99
206 98 97
205 96 93
204 94 93
204 93 91
205 94 93
196 92 96
185 82 90
180 80 93
213 116 114
225 136 118
225 136 113
226 135 108
225 130 107
222 128 108
219 127 107
216 122 106
239 181 139
247 206 147
186 97 90
186 87 91
191 92 92
191 93 96
202 99 98
144 56 76
89 22 62
110 34 71
226 130 108
229 138 113
232 143 112
230 138 107
228 135 108
216 106 88
163 58 75
176 68 79
176 71 79
177 69 79
187 78 84
197 87 88
201 92 90
205 94 92
205 92 91
207 95 95
208 95 94
207 96 97
208 95 95
209 95 93
204 89 88
202 89 89
202 91 89
200 91 90
203 96 98
204 98 100
203 95 94
204 94 94
204 92 92
205 93 93
200 90 94
188 82 91
184 80 93
210 109 111
222 129 116
223 133 114
224 133 109
224 130 108
224 130 109
222 129 109
218 123 108
220 132 107
248 209 156
228 173 130
179 80 86
191 90 92
196 96 96
141 52 73
91 23 66
98 25 64
111 35 72
227 134 109
232 141 112
229 128 100
230 134 106
230 135 108
215 105 89
161 56 74
175 67 80
177 70 80
177 69 78
188 78 84
198 87 87
201 90 89
204 92 92
206 92 92
208 93 95
207 94 94
208 95 96
209 92 93
207 95 98
204 101 105
201 110 113
201 123 121
200 118 114
198 98 99
199 92 95
203 92 95
204 95 98
204 93 95
206 93 92
200 89 92
189 82 91
186 78 91
209 104 106
216 119 113
221 128 114
222 128 109
223 127 107
224 127 106
221 123 104
216 117 102
214 114 97
236 171 136
250 215 161
196 115 95
184 85 91
140 52 72
90 20 63
99 30 69
96 25 62
107 30 71
228 135 110
229 127 97
218 103 90
230 136 107
232 138 109
218 106 88
159 53 71
173 63 77
176 68 78
180 70 78
192 79 84
202 86 86
205 90 89
205 91 89
208 93 93
210 92 93
207 95 99
205 98 102
198 103 115
197 122 128
197 127 133
204 147 144
209 162 153
208 164 152
214 174 160
210 156 143
196 103 102
199 91 99
202 91 96
203 90 93
197 85 90
188 79 89
183 77 89
210 104 103
216 115 108
218 121 114
221 125 110
221 121 104
221 120 101
219 115 99
215 110 98
215 111 96
217 120 104
247 204 160
243 197 144
143 57 73
88 19 62
97 25 65
97 25 64
93 23 62
107 30 68
232 139 111
204 91 81
201 88 87
233 140 109
234 139 108
219 106 87
152 49 70
164 60 76
171 64 76
176 68 79
186 75 83
196 82 85
200 86 88
203 89 89
207 89 89
204 94 94
195 101 105
188 94 103
189 102 112
190 107 115
196 119 123
201 134 134
207 154 148
213 169 155
217 175 157
220 180 163
220 185 168
198 131 125
187 82 90
194 83 89
192 81 88
183 75 87
181 73 85
215 105 103
220 117 107
216 116 109
218 117 109
219 117 103
219 112 98
219 114 99
217 111 98
217 112 99
216 114 99
232 153 129
229 180 131
90 22 61
94 23 64
99 26 65
93 22 63
93 22 62
108 33 69
235 145 111
163 56 70
199 89 88
234 140 109
234 138 108
217 103 86
150 47 69
164 62 80
170 67 82
173 67 80
182 75 84
192 80 86
196 84 87
202 87 89
210 93 92
193 83 85
188 82 90
190 91 99
192 99 106
195 107 111
194 109 115
200 124 126
207 148 142
214 169 156
218 176 161
221 183 168
220 186 168
219 189 179
208 165 157
178 91 94
180 75 85
179 72 86
177 71 87
216 107 106
227 124 110
217 112 104
200 92 95
218 112 105
222 113 100
221 114 99
219 111 100
220 114 101
222 118 105
213 113 100
105 32 64
91 21 62
98 23 61
95 23 64
93 26 66
101 32 70
132 59 87
231 129 101
156 52 71
200 90 90
234 139 108
234 140 108
215 101 86
151 49 70
166 60 78
172 66 81
174 68 81
182 75 83
192 80 85
199 86 89
202 88 89
199 84 86
186 77 86
189 86 94
190 89 96
190 93 101
197 105 109
198 108 111
202 117 119
211 143 137
218 169 156
216 170 157
218 181 173
224 195 185
228 202 189
231 205 191
220 189 169
161 65 79
167 65 83
171 68 86
215 106 104
228 124 108
221 115 105
158 56 74
192 84 96
223 114 103
222 113 100
221 112 102
222 113 101
226 118 105
126 42 67
92 19 61
100 26 64
94 22 62
95 23 64
101 36 78
130 59 91
206 121 112
202 90 82
160 55 72
198 87 88
232 136 109
233 139 109
214 101 87
151 50 72
166 63 80
172 65 79
174 67 80
182 74 82
193 82 85
199 85 89
199 88 89
186 77 85
187 81 91
187 85 92
187 88 97
195 99 105
201 111 111
206 115 113
204 114 115
211 138 132
209 152 147
221 183 177
227 196 184
224 194 182
225 194 183
226 200 190
230 210 198
200 158 145
148 58 76
164 62 81
216 106 104
228 125 110
222 118 109
147 51 70
135 45 76
215 106 103
223 113 101
221 110 102
226 115 105
172 74 80
90 21 64
101 26 64
95 21 62
98 25 64
96 27 69
127 59 99
193 116 120
204 124 111
165 58 73
160 57 75
197 88 89
230 135 112
232 138 113
213 102 90
151 50 71
165 61 77
172 66 80
173 67 79
183 74 81
193 82 86
200 93 93
191 79 82
186 77 86
188 79 87
189 86 94
196 97 104
202 108 111
204 111 113
200 107 109
195 106 112
207 143 142
223 183 169
221 182 169
221 184 175
225 193 182
226 196 185
227 199 187
227 201 188
230 207 194
203 165 148
149 50 72
214 104 101
227 124 111
223 118 109
152 54 71
96 17 57
176 68 83
220 111 98
222 108 99
212 104 95
97 21 60
99 22 62
101 26 65
97 25 64
96 25 65
106 37 83
185 110 119
201 127 123
207 136 117
159 58 75
158 55 72
194 85 89
231 134 110
232 138 114
214 104 92
148 48 72
162 58 75
170 64 79
171 67 82
181 74 83
188 77 84
212 121 107
179 69 82
186 76 85
191 80 88
196 91 97
202 103 107
201 104 106
198 103 105
189 99 110
211 149 146
221 169 155
219 172 159
220 176 166
223 186 175
224 191 180
222 191 183
224 195 184
224 198 188
225 202 192
231 213 201
166 98 99
209 101 100
227 123 109
223 119 109
152 56 73
90 15 56
132 70 104
220 181 173
229 189 176
140 72 85
92 23 65
102 27 66
99 27 67
97 26 66
96 24 67
171 95 116
200 123 122
211 141 126
206 130 114
158 59 75
165 60 74
195 84 86
231 136 110
233 140 112
213 103 89
145 45 68
162 58 76
173 65 77
176 66 78
183 72 80
186 75 85
227 144 114
176 67 82
185 75 84
192 83 92
197 93 98
195 94 100
198 96 97
194 100 109
216 150 142
217 151 144
217 161 151
219 168 157
219 176 165
219 176 167
220 182 173
223 187 177
224 191 180
222 194 183
222 197 187
223 200 193
211 183 166
202 98 97
228 126 108
221 118 104
137 48 68
143 100 128
217 185 176
230 206 191
234 209 196
162 126 122
93 23 65
98 23 62
94 21 62
97 26 66
142 67 103
202 123 123
211 136 125
211 138 125
206 128 113
162 60 76
173 63 75
200 85 86
231 135 111
235 144 113
216 108 91
154 49 69
167 61 76
177 66 78
178 67 76
186 74 80
188 78 93
228 143 106
175 68 80
183 72 83
192 82 89
198 90 97
195 92 98
195 99 107
214 131 124
210 134 132
219 153 146
218 161 152
218 165 156
215 160 153
218 168 159
221 175 164
222 183 175
221 186 174
215 173 165
221 191 182
221 193 184
220 195 189
221 171 150
227 122 98
216 126 118
202 158 157
221 191 180
228 200 185
225 196 183
232 207 197
159 118 115
94 25 66
96 22 60
97 22 62
102 29 73
198 117 125
210 133 126
213 137 124
210 135 123
206 126 113
172 66 77
174 65 75
205 88 86
233 139 110
237 150 116
219 111 91
153 49 69
167 61 75
174 65 76
175 65 76
181 70 77
193 96 103
229 139 103
184 75 83
181 70 84
191 79 89
195 86 94
199 99 109
212 118 113
205 115 116
213 134 132
215 145 142
216 152 146
215 151 142
217 157 149
218 158 149
218 166 158
218 167 156
217 170 161
215 176 167
217 179 171
216 175 169
212 176 169
212 178 171
223 162 147
224 188 172
225 193 180
224 193 180
224 195 183
225 194 182
235 210 196
133 84 93
95 26 66
93 19 60
102 27 71
172 89 113
207 125 125
214 138 127
211 136 125
210 134 123
205 126 114
173 66 77
171 63 74
200 88 87
234 142 111
237 150 116
220 112 92
154 50 70
168 61 75
175 64 76
175 64 75
179 68 76
199 109 108
233 145 106
210 98 88
183 70 81
189 78 87
195 93 103
209 112 112
200 106 110
211 122 121
208 121 122
212 136 135
216 144 140
218 149 139
218 152 143
216 149 142
214 150 142
216 159 152
216 166 160
215 169 161
214 163 159
210 156 152
210 163 154
219 180 166
223 187 175
224 191 177
222 190 179
224 192 182
223 187 170
213 157 149
224 186 167
97 33 65
95 24 63
93 20 62
126 50 92
206 121 125
211 136 128
214 138 128
211 137 126
211 137 125
207 128 113
169 64 77
169 62 75
204 90 89
233 142 112
236 149 115
221 113 94
154 50 71
167 62 77
173 63 75
174 64 74
175 65 74
200 112 106
236 152 109
220 114 94
188 75 81
193 86 98
205 105 106
196 99 106
209 112 113
203 110 113
208 121 121
214 128 128
213 133 137
205 134 140
210 134 131
212 138 133
213 143 138
216 146 142
214 146 144
210 146 145
209 149 146
217 165 153
222 181 163
222 186 170
220 184 172
222 189 178
224 194 183
227 199 186
211 154 141
203 131 129
179 130 125
89 21 63
93 26 65
101 27 74
187 104 120
208 128 126
212 138 127
211 135 126
210 137 125
209 136 123
205 128 114
168 63 76
175 66 77
211 92 88
234 143 112
237 150 114
222 115 94
151 47 67
165 60 76
172 63 75
175 63 75
175 62 71
199 116 113
242 169 119
226 127 96
205 93 89
198 94 100
191 95 103
207 107 108
199 99 106
202 108 114
207 114 121
190 104 123
166 83 111
166 93 126
184 115 138
175 105 130
177 108 129
167 94 118
150 83 116
209 143 141
221 169 156
225 185 169
219 184 168
219 186 175
223 190 179
225 195 183
227 196 184
213 163 145
170 85 91
197 131 142
124 67 79
92 21 61
97 25 64
130 55 97
207 122 124
211 137 128
212 136 125
209 134 126
209 134 123
207 134 123
203 125 113
170 65 79
179 67 77
214 94 87
234 144 111
237 150 115
223 117 94
151 48 68
165 60 76
174 64 75
176 64 75
176 63 71
190 98 102
248 186 130
217 110 91
200 95 95
184 82 95
204 102 108
196 96 103
199 100 108
204 104 111
189 96 119
171 87 121
145 67 108
124 55 111
138 79 128
123 63 116
106 48 96
85 26 76
166 107 124
217 169 159
223 185 169
220 182 167
218 184 169
220 187 176
224 191 177
209 162 147
170 89 91
165 74 90
201 127 129
159 100 98
93 21 63
93 22 62
95 26 69
177 97 116
208 131 129
212 141 130
210 139 129
208 136 129
206 134 126
206 133 124
203 125 115
174 69 80
179 66 76
211 92 88
233 142 112
236 149 113
224 117 94
150 49 69
165 59 75
173 63 75
173 64 75
176 65 74
170 63 81
245 187 137
226 139 110
199 98 96
201 97 104
192 90 101
196 94 104
194 96 109
193 95 108
146 65 103
113 43 92
98 28 76
125 58 109
114 48 104
115 58 105
105 52 99
179 112 121
217 167 156
215 170 158
215 172 157
217 175 162
219 182 168
202 161 147
160 101 115
172 105 125
212 124 114
229 152 133
158 96 94
95 22 62
99 25 63
97 23 61
116 46 89
203 120 122
213 144 130
212 145 130
211 141 129
208 138 130
206 135 127
205 134 126
202 125 117
177 72 82
175 65 75
204 86 84
234 143 114
237 150 116
226 118 95
149 47 68
162 57 75
171 62 75
175 63 75
179 67 76
179 68 75
212 136 122
236 166 124
198 95 95
192 90 102
194 95 111
188 91 117
182 86 107
132 51 96
113 47 93
110 44 94
96 26 78
108 36 80
113 46 102
118 65 118
162 102 134
220 173 162
215 173 159
211 167 155
210 164 155
214 173 164
225 176 162
167 81 93
146 78 110
169 106 130
224 144 125
146 76 81
94 20 59
102 27 63
96 23 61
97 25 66
153 79 105
201 126 125
214 147 130
212 145 130
212 143 129
208 139 130
207 139 129
204 135 127
201 126 117
179 74 84
172 64 74
194 82 86
232 141 114
237 151 118
226 120 97
150 46 68
162 57 76
173 63 77
174 63 76
181 68 79
189 77 81
191 94 104
243 185 131
195 90 95
186 84 101
197 93 106
181 80 100
130 50 89
104 34 86
114 46 92
104 37 95
110 44 85
91 22 63
105 37 85
145 83 132
200 151 153
214 167 156
207 155 149
208 158 149
217 165 159
234 180 170
237 183 171
219 130 115
123 44 80
154 88 122
167 84 92
90 17 60
103 27 64
104 31 65
94 20 58
106 34 78
178 104 114
205 136 128
213 147 130
211 145 128
211 143 128
210 142 130
208 140 129
207 137 127
202 125 116
178 73 84
171 65 76
192 82 87
232 141 116
236 151 119
225 121 100
152 49 70
164 59 77
176 67 81
176 66 79
185 75 84
194 80 83
190 80 92
226 152 118
187 79 88
197 90 102
169 73 93
121 40 76
104 33 79
96 26 71
106 36 85
110 44 97
112 52 99
94 29 71
188 108 123
197 138 150
209 166 162
210 158 150
210 147 140
226 149 141
235 175 164
238 186 173
242 194 180
236 166 143
131 36 64
130 57 102
155 84 98
98 23 63
105 30 67
102 29 63
96 22 60
137 65 97
194 121 119
203 133 124
204 135 126
206 139 126
209 140 127
209 142 130
208 139 128
207 136 124
203 124 115
175 72 82
169 62 75
191 80 86
231 141 117
236 154 118
225 122 101
152 52 76
165 62 80
176 67 81
178 68 80
187 75 84
196 81 86
194 81 85
206 107 96
201 90 101
182 86 103
113 36 83
98 30 73
104 35 84
100 29 72
100 30 79
109 41 94
104 45 92
179 97 109
217 149 142
205 160 158
208 161 157
213 139 135
226 137 135
232 155 146
237 178 166
239 187 172
242 196 181
243 189 167
165 60 73
100 29 79
164 93 106
100 27 66
107 35 70
98 26 62
96 24 67
175 100 113
205 136 126
208 142 127
204 139 128
201 135 125
194 128 124
196 129 126
200 130 124
203 131 124
204 122 112
175 69 81
172 63 75
190 80 89
231 141 119
237 155 121
225 122 98
152 51 75
164 61 80
175 68 83
178 67 80
187 74 82
200 83 86
203 103 97
150 64 86
190 99 114
140 55 93
100 40 97
100 36 74
107 39 83
92 22 67
103 36 91
99 35 80
150 74 98
213 149 140
212 149 145
213 168 155
192 105 108
195 97 109
219 133 135
234 154 143
236 168 155
236 177 162
240 188 170
235 175 154
160 59 73
95 21 67
164 94 113
107 35 73
106 36 69
97 26 64
114 43 86
190 113 117
210 141 125
208 140 125
208 142 127
207 143 128
201 135 124
194 130 125
192 127 126
189 122 123
191 114 112
174 68 80
171 63 74
189 77 85
232 141 116
238 155 121
226 125 101
154 51 74
165 61 79
177 66 79
177 64 75
183 74 87
206 105 105
213 117 103
149 70 95
134 51 84
120 54 109
105 44 96
103 42 89
97 31 78
98 31 70
96 28 73
119 48 85
211 141 135
221 176 160
201 142 132
175 74 82
168 69 84
162 60 78
178 68 86
221 119 122
235 154 147
238 174 159
201 115 106
146 51 74
149 48 69
97 22 66
169 97 115
108 36 71
102 30 65
97 26 64
145 72 102
197 121 118
211 138 123
209 135 122
207 135 122
206 138 122
203 134 122
201 135 126
199 135 130
190 127 127
180 111 114
173 69 82
159 55 71
180 69 81
233 143 115
238 157 121
226 123 99
156 50 69
168 59 74
176 64 75
172 59 72
191 110 113
221 124 107
184 90 95
102 33 81
109 48 101
114 53 109
109 52 94
93 27 80
100 34 72
100 34 79
91 23 69
183 108 120
220 167 156
212 165 144
141 45 64
121 35 69
123 48 94
173 113 119
176 65 85
216 97 105
236 154 152
204 137 121
114 39 79
154 73 96
105 21 58
98 24 65
166 91 113
119 46 77
98 25 61
95 25 67
177 99 112
207 133 123
208 135 121
207 131 119
208 132 120
206 133 121
203 132 121
197 129 125
191 126 124
182 116 121
177 111 114
167 64 78
157 53 70
176 67 80
232 143 117
239 161 124
228 127 101
164 56 72
180 67 77
181 72 78
148 60 89
183 110 130
167 109 110
105 44 98
109 49 98
106 45 102
125 69 128
124 72 114
88 19 62
96 24 66
88 18 58
133 59 92
209 150 146
211 165 148
201 96 102
206 98 106
185 79 99
191 109 131
220 145 145
209 93 99
213 91 102
236 166 167
207 129 126
179 95 121
174 83 93
118 27 60
103 31 70
163 95 119
122 48 79
96 24 62
113 40 79
192 116 118
208 136 122
205 132 120
204 132 123
204 131 120
204 131 120
198 125 118
189 120 120
185 120 121
200 140 126
216 154 123
172 68 80
148 47 67
168 60 77
231 141 118
240 162 125
230 131 102
166 55 69
181 67 76
192 79 93
186 104 129
128 65 104
99 34 85
121 66 127
113 58 104
104 42 102
126 74 132
126 79 121
93 24 64
91 21 64
96 31 71
198 119 123
210 162 146
185 75 83
216 103 114
225 125 128
224 127 128
221 128 131
223 136 140
216 110 114
216 93 101
232 154 165
227 168 156
215 111 114
195 81 90
147 45 65
108 29 66
162 95 124
121 46 72
96 24 60
138 63 92
197 122 120
206 133 122
203 130 122
202 129 120
201 128 120
197 126 119
189 119 117
190 125 122
225 172 134
232 180 131
225 167 122
164 61 76
138 41 65
161 57 77
230 141 117
239 160 124
229 129 102
163 54 69
178 70 89
186 94 125
143 78 120
111 47 95
116 57 117
133 84 130
93 27 70
92 28 78
119 58 100
126 62 97
120 49 76
84 18 63
149 73 98
215 164 152
136 64 77
198 76 88
218 100 108
228 127 128
233 151 144
232 153 145
230 144 135
222 116 116
218 95 100
229 141 153
231 177 162
221 122 120
214 93 101
150 49 70
113 33 67
154 81 113
124 50 72
97 22 59
169 90 104
204 132 122
204 134 122
201 130 123
199 128 121
196 125 120
190 121 119
187 119 118
228 174 132
237 186 133
234 183 134
226 174 133
148 52 73
125 36 66
157 54 77
229 138 117
235 154 121
230 127 100
160 52 73
177 79 103
171 85 118
138 76 124
121 60 108
109 55 119
129 80 124
98 31 73
85 19 63
114 39 70
143 68 101
159 81 89
90 23 66
198 124 130
159 112 107
117 29 65
198 77 87
220 97 102
227 117 119
232 138 134
233 147 138
230 134 123
219 103 105
214 90 93
225 126 140
233 181 166
221 122 121
213 94 100
127 37 66
116 35 66
143 70 104
136 65 84
105 31 69
193 113 112
210 140 122
205 133 121
200 129 121
195 125 120
192 122 118
184 116 115
215 154 124
238 183 127
236 187 136
237 198 155
226 181 140
136 46 74
121 32 62
150 48 72
229 138 119
237 154 122
231 128 99
159 52 75
177 82 111
157 72 109
132 67 121
114 55 114
120 71 126
130 85 134
93 29 71
90 21 66
138 59 87
156 76 90
99 29 63
150 77 96
194 135 129
86 18 56
132 41 69
195 73 84
218 93 98
225 109 113
228 122 121
229 132 126
226 123 118
212 91 95
216 94 97
222 111 122
236 184 169
219 116 116
200 87 92
98 23 64
120 38 65
130 55 93
155 85 94
123 48 80
204 125 115
207 135 119
203 130 118
200 130 121
196 127 120
191 121 117
193 124 117
237 182 128
238 185 133
238 199 154
236 200 158
226 185 146
140 49 74
131 36 63
167 63 83
229 138 119
237 153 124
231 130 105
164 59 78
173 65 86
148 61 102
131 66 114
114 59 114
113 57 117
135 88 140
105 50 88
113 41 70
95 33 84
112 45 75
114 47 84
210 152 141
122 57 73
91 18 57
144 51 76
199 74 81
218 90 95
225 105 109
226 116 117
228 125 122
225 123 118
216 95 95
196 76 82
210 92 106
227 152 141
216 109 112
154 60 78
91 24 67
122 38 65
115 37 81
171 102 105
157 77 93
207 131 119
203 132 120
200 129 120
198 128 120
195 125 117
189 118 116
212 146 122
240 186 130
240 195 149
237 200 159
236 203 165
226 186 147
145 47 70
133 36 63
183 84 100
229 139 119
237 152 123
231 133 105
160 55 71
174 69 93
145 61 100
121 59 112
103 44 92
115 57 114
130 81 139
131 80 120
139 61 88
100 35 81
179 116 133
176 99 104
146 88 96
95 25 64
102 27 63
147 59 84
202 78 85
217 90 93
224 102 105
224 108 111
227 120 120
226 124 122
221 117 116
227 136 135
230 165 158
225 145 135
207 103 106
102 31 69
98 29 70
130 45 68
104 25 69
177 106 111
191 104 101
206 134 120
202 131 121
199 128 120
196 126 119
193 125 118
186 116 112
226 163 123
240 191 140
240 200 155
238 201 157
237 204 166
227 188 151
139 43 66
129 35 63
178 81 100
229 141 121
237 155 125
232 135 105
160 53 74
175 77 101
139 57 100
115 55 101
100 41 94
117 58 112
114 56 111
134 85 137
127 61 95
182 118 141
193 133 123
153 83 94
102 28 63
101 23 59
113 32 63
137 52 79
193 69 80
218 90 91
224 99 101
224 103 104
216 99 98
219 106 105
218 108 108
225 126 124
226 141 137
213 115 117
163 74 90
90 25 67
106 33 70
130 44 67
100 21 62
177 103 114
207 118 104
205 135 120
201 129 119
197 128 121
195 126 120
194 123 116
184 112 110
233 174 128
242 200 153
240 201 156
238 203 161
237 206 172
226 189 151
125 33 62
128 35 66
181 87 103
230 144 122
238 159 125
228 134 115
172 76 99
175 76 107
134 59 100
96 31 76
105 45 101
130 84 139
126 72 128
121 66 118
171 94 120
211 146 147
181 103 103
107 45 72
98 23 59
102 24 60
114 33 64
125 43 72
170 59 73
210 84 85
218 91 95
223 107 107
213 91 91
209 73 83
218 85 101
221 109 124
219 108 123
207 103 106
105 32 67
93 22 62
115 35 68
129 42 67
108 31 65
180 104 115
210 126 111
204 136 120
201 132 120
195 129 120
193 127 120
193 123 117
184 112 110
238 188 144
241 205 159
240 204 161
239 206 167
238 207 169
226 187 145
112 28 62
123 35 66
181 82 94
228 141 120
238 160 125
229 136 116
153 50 78
173 84 110
123 60 103
93 30 81
107 48 106
142 105 156
127 78 131
139 93 144
166 98 135
211 141 137
133 70 84
96 29 68
97 27 65
101 29 66
112 34 66
116 38 70
140 45 67
188 69 77
207 85 90
217 98 103
221 104 105
217 94 96
217 92 98
221 98 110
218 110 117
156 66 79
89 23 64
100 28 64
118 36 67
133 46 69
117 35 67
180 106 117
207 130 116
202 136 121
201 135 122
197 133 122
191 129 121
187 122 117
179 109 109
242 201 158
242 208 163
242 209 169
240 206 160
238 201 155
225 183 139
103 24 59
131 45 73
188 85 92
228 137 118
236 156 124
230 134 107
156 51 74
148 66 100
116 51 94
95 35 84
97 35 95
131 86 134
140 100 155
137 88 137
156 79 119
158 99 107
90 27 70
100 29 67
99 26 63
97 24 62
107 28 62
108 28 62
117 35 63
142 40 62
190 69 79
213 95 101
218 106 111
224 121 124
228 134 133
229 138 133
209 113 110
101 27 65
91 28 69
106 31 63
121 40 72
137 50 72
126 41 69
179 107 120
203 133 118
199 137 124
196 133 125
194 133 124
188 128 123
180 120 118
173 110 115
243 209 165
243 208 161
242 207 164
241 205 159
241 200 155
226 178 132
95 22 62
113 33 67
186 83 90
228 138 119
235 154 123
230 132 105
156 68 93
130 59 91
109 44 88
101 36 82
86 25 84
137 94 140
123 69 128
137 98 151
157 109 151
129 76 106
87 27 70
110 35 69
99 28 64
97 26 64
97 24 62
106 30 65
110 33 66
123 35 63
144 45 70
182 74 89
201 96 106
219 116 123
226 136 134
223 132 131
185 98 100
92 32 75
93 33 74
103 32 65
125 46 76
138 55 77
134 48 73
181 108 117
184 110 105
187 118 116
188 125 123
190 129 125
183 125 122
174 116 116
183 125 122
245 211 162
243 205 155
244 204 156
237 187 139
188 119 98
127 51 69
92 21 62
106 27 61
156 58 76
226 134 118
234 149 123
228 139 123
160 84 100
113 52 83
103 37 82
100 33 83
106 42 90
133 87 138
119 67 121
136 98 143
136 92 143
148 97 137
115 67 99
115 36 69
100 30 68
94 24 65
97 25 64
102 28 65
106 29 63
136 45 72
198 86 95
206 94 99
210 104 107
217 113 115
216 116 115
221 136 131
230 178 160
205 162 150
140 91 105
90 27 65
122 46 78
135 55 78
135 49 75
185 107 112
181 101 101
176 94 98
168 88 97
166 90 99
167 100 106
163 100 107
194 135 126
245 201 146
243 201 153
237 186 139
164 88 85
105 28 64
136 49 75
123 50 77
140 61 78
130 38 66
225 129 116
234 149 123
229 133 111
179 102 117
89 25 64
95 31 85
114 55 100
123 63 107
106 47 98
125 75 125
115 64 118
141 98 152
149 102 137
126 73 112
116 45 76
102 31 67
95 26 66
99 31 69
99 28 67
119 39 68
128 44 73
196 82 89
204 92 98
215 104 106
217 106 107
217 115 114
224 145 133
229 173 149
233 183 157
240 193 168
198 159 146
117 49 77
123 45 70
125 40 70
190 112 118
194 125 118
188 118 116
182 109 111
169 93 100
154 78 91
175 89 86
192 121 115
245 202 151
242 196 144
163 86 82
130 45 69
146 56 76
151 63 86
166 119 132
171 121 121
131 41 68
226 133 117
236 155 123
230 133 117
166 100 108
86 22 65
99 33 76
94 29 74
108 45 89
94 33 80
107 53 103
107 50 107
133 85 140
152 114 156
145 91 123
123 65 94
99 31 69
98 29 68
102 33 70
102 31 68
154 58 77
125 40 72
198 85 91
211 96 101
217 105 105
218 106 107
222 122 116
225 140 127
227 157 137
231 171 145
238 187 158
242 198 177
210 170 152
110 33 63
113 32 71
199 121 115
195 127 118
191 123 118
187 119 120
179 113 116
170 104 108
193 104 85
228 167 135
246 206 154
220 156 111
137 49 74
157 64 81
169 74 84
154 65 85
152 102 129
185 149 144
124 42 67
226 135 117
237 158 124
233 137 108
151 77 95
85 23 67
93 29 70
89 25 76
117 58 98
92 26 72
105 43 93
119 63 120
121 69 121
151 109 162
118 66 98
146 100 125
97 26 64
104 31 66
101 31 68
101 25 63
175 67 76
132 41 69
207 87 90
217 97 99
219 105 102
220 109 107
222 118 113
224 133 121
226 148 133
229 165 143
234 182 155
240 195 175
244 207 189
158 102 101
107 26 67
201 124 113
197 126 114
191 123 116
186 117 116
180 114 115
177 105 104
220 145 114
243 199 151
245 203 145
184 98 84
159 63 80
174 77 85
159 64 80
152 67 85
113 53 98
186 152 147
120 39 65
227 135 113
236 159 123
234 140 107
140 67 89
92 26 68
88 19 64
103 45 100
106 48 82
97 32 73
89 26 72
101 41 97
122 71 124
150 110 160
142 96 136
137 96 120
103 30 65
108 33 65
99 27 65
122 36 68
198 82 85
144 49 72
211 90 92
219 101 98
220 102 98
220 106 102
221 114 109
223 127 119
224 141 129
227 159 142
231 179 157
239 194 176
240 203 188
221 181 154
111 34 69
200 124 114
194 126 115
190 122 114
183 116 113
174 108 109
198 126 116
246 202 152
247 208 157
235 174 116
169 66 74
174 71 81
168 71 82
161 72 87
142 65 84
98 35 83
187 154 151
126 48 69
227 133 114
233 156 124
229 139 113
139 65 93
88 22 64
92 26 72
96 34 80
103 41 78
94 30 72
90 26 71
100 39 88
112 60 121
147 104 147
126 73 110
119 61 94
123 57 90
119 46 75
101 25 62
162 58 75
205 90 89
149 53 76
215 94 93
220 103 101
221 102 97
219 101 98
220 110 105
222 122 116
223 135 124
225 152 137
229 175 154
235 190 174
239 199 185
242 207 185
149 73 81
196 126 116
191 124 115
186 120 113
183 118 114
174 108 108
213 142 121
246 200 144
248 207 152
213 122 90
176 70 76
175 72 79
160 64 79
157 73 91
135 58 80
90 27 76
183 151 150
135 60 77
224 129 110
235 157 122
231 139 113
155 75 94
86 22 67
99 35 76
91 28 74
98 35 76
94 33 76
91 30 77
104 46 96
109 59 110
128 83 129
130 81 134
108 51 80
102 28 63
99 26 61
112 29 62
188 74 83
188 78 82
166 68 85
219 101 101
222 107 103
222 105 99
219 102 97
220 107 101
221 118 112
222 129 120
224 144 129
227 167 147
232 185 169
238 196 183
240 204 188
207 137 118
180 109 106
185 118 113
188 124 118
183 122 117
184 115 110
207 121 98
233 171 129
245 198 134
196 89 80
168 64 77
154 56 73
161 71 87
147 66 87
135 60 81
84 20 68
186 154 155
143 72 82
221 123 108
234 156 122
234 142 108
158 74 96
89 23 65
86 23 68
97 35 77
98 38 79
90 26 66
90 26 70
103 48 104
128 81 123
107 48 94
115 56 100
102 34 63
91 21 58
93 19 56
148 52 71
199 83 84
148 53 73
200 89 91
219 102 101
223 108 103
223 107 100
221 103 95
219 104 98
221 114 106
222 124 114
223 139 124
225 157 138
229 179 163
236 195 182
240 203 189
221 169 145
141 55 72
144 61 76
150 74 86
157 89 99
191 120 109
206 124 94
235 177 139
232 162 105
161 57 70
153 56 73
152 61 83
151 67 85
149 72 93
116 40 66
79 14 61
190 156 158
155 93 95
217 120 108
233 157 121
231 144 110
144 65 92
88 24 67
92 27 69
91 29 72
98 35 77
96 32 73
87 24 66
92 29 75
121 74 130
142 94 138
110 48 83
90 21 58
86 16 55
113 29 61
185 73 78
169 63 70
154 58 77
217 100 94
220 103 100
223 105 102
223 109 102
223 105 97
220 103 95
220 108 100
221 119 108
222 130 119
225 149 131
228 171 155
233 190 176
237 200 187
238 201 176
154 72 82
157 72 82
134 52 72
99 26 60
140 67 86
230 170 113
245 192 132
172 83 72
131 40 67
146 58 81
148 65 84
145 65 88
144 70 89
111 34 63
124 46 75
186 154 158
165 110 106
214 119 107
234 159 123
228 143 108
133 59 89
88 25 68
91 25 68
92 29 71
100 39 84
103 42 85
91 29 76
102 42 84
104 44 95
128 78 123
98 36 71
85 20 58
93 20 57
147 50 67
150 52 67
149 50 70
208 90 88
217 100 94
221 104 98
222 105 100
223 110 102
223 109 102
221 106 99
220 107 97
220 113 103
221 124 114
223 141 126
226 159 144
229 181 169
235 197 185
241 204 187
173 103 97
159 78 86
151 71 84
133 55 75
162 78 92
238 183 124
177 93 79
119 35 65
137 50 76
149 69 86
131 50 77
154 79 101
134 61 82
114 39 69
142 72 97
177 140 151
174 123 116
212 117 104
237 160 125
231 147 113
109 39 74
88 25 67
97 31 76
97 36 79
102 43 86
107 47 103
105 49 92
105 49 92
110 53 102
135 85 132
93 32 69
87 21 58
111 26 57
147 50 68
187 74 81
207 88 88
211 93 88
215 98 93
220 101 95
222 105 100
223 109 103
223 113 106
222 112 103
221 110 99
220 111 102
221 121 110
223 134 122
225 153 138
227 172 158
232 190 178
237 202 189
195 139 123
144 70 84
157 84 94
163 85 94
179 83 87
173 83 84
151 60 76
140 51 74
147 69 87
128 48 70
145 68 94
155 87 104
119 44 70
103 30 62
111 43 76
189 149 160
204 160 138
212 118 105
237 160 125
216 135 113
103 34 70
90 28 71
103 35 79
104 41 85
111 53 97
109 48 99
123 68 113
110 53 98
106 44 89
109 49 99
108 49 87
112 26 56
170 58 67
199 80 78
206 86 82
210 91 86
214 94 88
217 96 89
220 100 92
222 103 97
223 107 101
224 112 105
224 114 106
224 116 106
222 116 106
223 122 110
224 132 119
224 147 133
225 164 149
229 184 171
234 196 184
219 175 153
137 64 80
154 83 95
181 94 93
189 86 84
191 86 85
175 74 82
145 63 87
132 56 78
140 60 84
166 97 111
130 60 80
102 30 62
124 41 66
96 29 65
