P3
51 51
255
130 108 222
128 108 222
139 115 230
147 116 235
105 99 203
63 85 162
72 86 176
74 85 177
74 84 177
83 88 189
92 90 199
96 94 204
100 97 204
98 94 204
100 97 207
102 98 210
101 96 208
101 99 207
102 99 207
102 102 204
98 95 204
101 97 203
100 95 207
99 96 207
101 98 205
98 96 203
97 96 201
97 97 202
96 96 199
89 95 188
78 86 179
110 105 210
134 112 220
126 107 220
130 109 221
127 103 222
127 103 222
131 108 220
132 109 221
196 148 246
190 135 232
82 90 172
90 93 186
93 96 188
92 93 191
94 94 194
93 94 194
96 95 196
90 93 191
101 103 192
133 116 225
130 109 225
130 107 225
144 112 231
141 108 232
100 90 202
59 78 163
69 81 178
72 82 177
70 79 178
82 86 190
90 90 199
94 91 205
98 93 206
98 94 207
97 94 208
100 95 210
99 96 209
98 95 210
99 97 208
99 97 207
98 95 207
98 94 205
100 95 207
100 97 208
98 95 206
98 94 205
96 94 203
95 96 203
97 96 202
90 94 191
79 89 178
90 99 194
127 114 221
134 112 225
136 110 227
132 107 225
129 105 224
127 105 221
127 107 217
154 123 232
209 154 250
131 105 197
82 90 182
90 92 189
92 93 190
93 93 193
95 93 198
97 94 199
51 73 128
43 76 131
130 107 226
131 109 226
137 113 229
142 111 229
135 108 228
101 91 203
59 75 163
69 79 178
71 80 177
70 78 179
80 84 189
88 87 199
94 91 204
96 93 206
96 95 206
97 95 207
97 93 209
96 93 210
97 97 209
97 93 210
93 90 207
94 93 206
94 92 204
96 94 205
99 99 206
99 96 206
96 93 204
94 92 204
94 92 204
94 93 204
91 96 195
81 89 182
82 95 185
120 115 217
136 118 226
136 113 225
134 107 225
129 108 224
128 108 221
126 107 218
123 106 217
189 144 245
200 142 239
89 88 179
89 91 188
92 93 191
94 97 193
98 97 200
50 73 124
22 63 90
45 76 136
131 108 227
138 113 229
143 112 232
137 107 229
134 107 229
100 85 204
58 75 162
69 80 177
70 79 176
69 80 178
80 84 189
87 88 198
92 91 202
94 92 205
92 92 205
95 95 208
96 94 207
96 97 208
95 95 208
94 92 208
89 88 203
89 89 202
91 89 201
91 91 201
96 98 203
98 99 204
95 94 203
94 93 204
92 92 204
93 93 204
89 94 199
82 90 186
81 95 188
112 112 214
130 116 223
133 114 223
132 107 224
130 110 224
130 109 223
128 109 221
122 107 217
139 111 226
212 159 250
159 123 213
80 86 182
91 92 191
95 95 194
45 70 123
24 67 93
25 63 98
46 77 136
134 109 227
140 110 231
128 101 229
135 106 229
135 108 230
99 87 203
55 75 160
68 80 177
70 80 177
69 78 179
79 84 191
87 88 199
90 89 201
92 92 204
91 93 207
93 95 208
94 94 207
95 96 209
92 93 209
95 99 207
101 105 202
112 114 201
123 120 201
117 112 199
97 98 198
91 94 201
93 96 203
95 98 205
93 94 205
92 92 205
88 92 198
81 90 187
79 92 189
107 107 212
120 113 217
129 113 221
128 109 222
127 107 223
127 106 224
122 104 220
116 101 216
114 98 214
181 142 242
212 157 247
103 91 184
86 91 184
46 69 122
20 63 91
31 69 99
23 62 95
42 76 134
136 111 228
123 94 226
105 92 220
138 107 231
137 108 232
100 85 205
53 71 158
64 78 175
68 78 177
70 79 182
80 84 194
86 86 202
90 88 205
91 89 205
93 94 209
92 93 210
96 100 207
97 102 203
106 117 198
123 128 197
129 134 199
148 144 205
163 154 209
165 152 209
174 159 214
152 140 207
98 99 195
92 99 200
91 96 202
90 92 203
83 90 195
79 89 186
78 90 187
107 105 214
115 109 216
122 114 218
125 109 221
121 103 221
119 101 221
115 99 218
110 98 215
111 96 215
127 107 222
209 165 250
187 136 231
47 70 122
19 63 89
25 65 98
25 64 96
23 62 93
42 73 134
140 111 233
84 78 192
96 90 213
141 109 234
138 107 234
99 84 206
49 70 150
61 77 166
64 76 172
69 79 177
76 83 189
82 85 196
86 89 200
89 89 204
89 90 207
94 95 203
101 105 193
93 104 187
103 112 189
108 115 192
120 124 197
136 135 203
157 149 208
170 156 214
175 157 217
181 165 220
183 166 217
123 119 193
81 90 188
83 89 194
80 88 191
75 87 181
74 87 186
108 104 219
117 107 219
116 109 216
118 109 219
115 102 219
113 98 220
114 99 219
111 98 217
112 99 217
113 99 216
163 135 240
164 121 202
18 61 84
24 65 97
25 64 97
22 63 93
22 61 94
45 74 135
143 110 234
53 70 157
96 91 213
142 110 235
137 106 233
97 83 203
47 69 149
63 81 166
67 81 171
67 80 174
76 84 185
80 86 193
85 87 198
87 89 203
95 92 210
80 84 188
83 91 188
92 99 191
100 107 193
107 111 196
110 116 194
126 127 202
151 143 209
170 156 215
177 162 219
183 168 222
185 168 219
190 180 221
160 153 202
84 89 175
75 85 181
72 86 178
72 88 182
112 107 221
124 110 226
110 103 213
92 96 202
114 104 220
114 100 223
113 99 221
111 100 219
114 101 220
119 105 222
108 96 198
27 63 93
21 62 94
23 61 98
24 65 96
25 66 93
32 69 99
71 92 161
124 98 225
52 72 158
97 92 213
141 109 235
138 107 233
95 83 202
48 71 150
61 79 169
67 81 172
68 81 174
76 84 185
81 86 194
86 89 200
88 89 203
83 85 195
78 87 187
86 94 190
89 96 189
95 102 191
105 109 198
109 112 198
119 120 204
146 140 212
171 156 218
169 157 216
183 175 220
197 186 225
202 189 228
206 193 232
178 158 206
62 78 161
66 83 167
69 87 178
110 105 221
124 108 227
112 104 215
52 72 149
90 99 205
115 102 223
113 101 222
112 102 222
113 102 223
117 103 219
34 64 105
20 61 94
26 64 99
22 63 94
24 65 94
38 79 105
65 95 144
123 110 215
84 80 188
55 72 160
94 90 211
139 110 233
137 108 233
95 84 201
50 73 149
64 81 168
66 79 172
68 80 175
75 82 185
82 86 195
86 89 199
88 89 196
77 86 186
82 91 188
85 93 186
89 98 188
101 105 196
111 111 202
115 113 205
115 117 205
140 133 211
154 150 210
186 179 223
196 184 226
194 182 224
194 183 225
201 190 227
211 198 232
145 135 184
55 74 148
65 83 173
110 106 221
124 111 228
116 107 218
43 66 125
52 79 157
109 104 220
112 100 222
110 103 222
116 105 227
64 75 143
22 64 92
26 64 102
22 62 95
25 64 97
28 70 98
66 102 141
119 120 199
119 107 201
57 73 160
57 75 160
94 92 210
137 112 231
137 111 232
96 88 201
49 71 149
62 78 167
66 80 172
67 78 174
75 82 186
82 86 194
96 93 203
75 82 184
78 86 187
80 88 188
86 95 190
99 105 198
109 111 203
111 113 204
106 108 198
107 114 196
148 146 212
184 169 223
182 170 221
185 176 222
193 182 225
196 186 226
199 187 227
201 188 227
208 196 231
148 134 182
54 75 162
109 103 220
124 112 227
116 107 219
46 67 129
18 58 104
75 86 193
111 98 221
109 100 223
97 91 192
19 59 90
23 63 101
25 65 99
25 64 97
24 65 96
43 87 119
113 120 192
130 124 205
127 111 196
58 75 161
55 72 157
92 92 208
136 111 232
137 112 231
97 89 201
47 72 147
58 76 165
64 79 170
68 83 172
74 83 184
76 84 187
122 106 212
69 82 179
76 86 187
81 89 192
92 98 197
103 108 203
104 105 201
102 104 195
102 114 191
154 148 215
170 156 221
171 159 219
177 168 221
186 175 223
191 181 224
191 182 222
195 184 223
199 189 224
202 192 226
214 199 231
84 89 158
106 102 218
123 110 227
116 107 218
48 70 130
14 56 88
85 113 157
185 176 223
187 172 229
56 76 111
24 65 96
27 67 102
27 66 98
26 66 98
25 70 100
103 118 187
124 123 201
141 126 211
122 109 195
59 75 158
59 74 165
90 89 208
138 111 233
139 111 232
96 86 200
44 68 143
60 77 166
65 77 174
66 78 177
73 81 185
75 89 188
143 110 222
68 83 177
74 84 186
85 93 194
93 99 196
94 100 195
95 96 197
105 114 198
151 143 217
152 145 216
161 151 217
169 158 219
176 166 219
176 167 220
182 174 221
187 178 223
192 181 224
194 184 222
197 188 222
202 194 225
169 155 199
103 100 213
126 108 229
115 101 214
43 68 117
113 137 165
188 178 221
207 191 232
210 197 237
105 108 130
24 65 95
23 62 97
21 62 94
26 66 97
77 108 164
123 124 203
137 125 212
138 125 211
121 109 196
60 75 164
63 74 173
91 89 211
138 112 232
143 112 235
100 88 203
48 69 152
62 77 170
66 78 178
67 76 179
75 80 187
90 100 200
131 99 214
67 80 175
72 84 185
82 90 193
90 97 198
92 98 194
103 110 200
131 124 213
136 134 212
155 147 219
161 153 217
166 156 218
160 153 215
169 159 219
176 166 221
184 176 222
185 173 220
175 167 216
191 182 221
193 184 221
196 189 221
163 141 222
122 99 227
128 121 210
164 162 207
193 182 222
200 185 227
196 184 225
209 198 235
99 102 128
26 66 95
21 60 95
23 62 99
35 79 117
121 126 204
135 126 212
136 123 212
135 124 210
119 109 197
66 77 172
65 74 176
94 89 214
142 111 235
149 116 237
103 87 206
49 69 151
61 75 170
65 76 175
65 76 175
70 77 182
109 109 207
127 98 217
73 83 182
70 84 182
81 90 193
86 94 195
103 111 203
117 113 210
116 118 205
135 133 214
146 143 215
152 145 215
151 143 216
158 149 217
158 149 218
167 158 218
167 157 218
171 161 216
177 168 216
179 171 217
175 169 215
175 169 210
178 168 215
164 150 223
189 173 224
194 181 225
193 180 223
195 183 225
194 182 226
211 196 236
65 81 104
26 65 96
19 60 93
29 74 108
97 117 189
127 126 209
138 127 213
136 125 211
134 123 209
119 110 198
66 77 173
63 75 173
94 90 210
144 112 235
149 116 237
104 89 206
49 70 153
62 76 171
64 76 175
64 75 175
68 76 180
121 112 212
138 104 227
95 87 205
69 82 181
78 88 189
96 104 201
112 112 206
107 111 204
123 122 210
121 122 208
137 136 213
145 140 217
149 139 218
152 142 218
149 142 216
150 143 215
160 152 216
167 161 216
169 161 215
163 159 214
156 152 210
165 155 212
181 167 220
188 175 223
191 177 223
190 179 222
193 182 225
182 165 220
158 151 215
180 159 208
24 63 88
24 63 94
21 63 96
58 97 145
123 125 208
137 128 213
138 128 213
137 126 211
137 124 211
120 109 199
65 77 169
62 75 171
96 92 214
144 113 234
148 114 236
106 91 207
49 71 152
62 77 169
62 75 174
64 74 174
64 73 174
124 111 215
148 107 232
110 93 216
72 81 184
90 101 198
104 106 202
99 106 198
113 113 210
111 114 203
121 122 209
129 129 214
134 138 213
133 139 204
134 131 211
139 134 212
143 137 214
146 143 216
147 145 214
146 144 209
149 146 210
168 154 219
181 164 222
186 170 222
184 172 220
190 179 223
194 183 224
198 184 226
149 138 208
132 131 204
117 116 152
22 64 92
25 65 94
30 78 109
111 122 200
129 127 209
138 127 211
135 126 210
137 125 210
136 124 209
120 109 197
63 76 168
67 78 180
97 91 218
145 113 235
149 113 237
107 90 208
46 68 149
61 77 168
63 75 173
64 74 176
61 70 173
129 119 217
165 117 238
124 95 225
90 89 199
94 101 196
96 104 194
106 108 206
99 106 199
109 114 203
114 122 206
102 122 185
81 110 161
98 130 177
112 137 178
105 129 176
107 128 176
92 117 162
89 118 161
145 141 211
172 158 223
185 169 225
183 168 218
187 176 220
191 179 223
196 184 226
196 183 227
154 138 203
82 90 167
143 146 206
50 71 100
21 61 92
25 65 97
65 103 153
124 124 208
138 128 212
136 125 211
134 126 209
134 123 208
134 123 207
119 109 196
66 79 169
67 77 184
99 90 220
146 112 235
150 114 237
109 90 209
46 69 148
61 76 168
64 75 175
64 75 177
62 70 175
111 109 206
182 126 245
106 91 213
92 94 193
84 96 187
103 108 203
96 103 197
101 108 199
103 111 203
97 119 189
85 120 164
65 106 137
57 115 128
76 125 133
63 116 122
44 91 99
31 79 94
116 129 183
171 161 220
184 168 223
182 167 220
184 169 218
187 176 221
190 176 224
155 141 201
83 87 165
77 92 170
135 133 206
85 91 135
22 62 94
23 63 95
27 72 98
105 119 194
134 130 210
141 130 211
138 128 210
136 129 207
134 126 207
133 124 206
118 110 197
69 80 174
66 75 182
98 91 218
145 113 234
148 113 236
110 90 210
47 70 148
60 75 167
63 76 174
64 75 173
65 74 177
74 89 183
187 133 246
134 108 220
94 96 193
98 104 203
90 101 192
94 104 196
96 109 194
90 109 184
64 102 140
42 92 110
27 76 98
61 110 128
51 107 117
53 99 105
56 102 116
119 126 193
170 157 218
170 158 215
172 157 215
176 163 218
183 169 219
156 143 193
96 114 155
108 124 183
126 115 216
155 135 228
81 86 132
23 63 97
24 62 97
23 62 97
55 95 137
122 123 206
145 130 214
144 130 212
141 129 210
137 130 207
135 126 206
134 126 205
119 112 196
71 82 177
65 74 176
92 88 215
145 115 235
150 115 237
110 92 212
45 68 146
58 75 165
62 75 172
63 75 175
68 76 181
66 75 175
150 128 227
160 120 229
92 96 197
89 102 191
95 113 192
92 117 189
82 105 172
52 97 128
44 90 106
44 93 110
30 79 100
33 82 106
49 103 113
66 121 121
110 137 179
176 163 222
172 159 213
167 154 211
164 156 210
174 164 216
174 158 224
72 90 152
81 113 150
109 130 179
144 123 220
65 76 125
20 59 96
27 64 102
22 60 95
26 68 100
86 108 169
130 127 207
146 129 213
145 130 213
142 129 211
139 130 208
138 128 207
135 127 204
120 113 197
74 84 178
63 74 170
89 89 207
144 115 234
151 118 238
112 93 213
44 68 145
58 76 165
63 77 173
63 76 175
70 79 184
76 81 187
108 113 204
174 124 234
87 96 191
85 102 188
94 106 199
78 99 172
46 87 118
37 89 110
43 88 106
41 101 113
40 79 102
22 63 90
42 89 116
88 137 151
156 153 209
166 154 211
156 150 207
158 149 209
166 160 221
180 170 235
183 171 238
117 106 203
44 81 118
95 127 168
73 84 145
17 60 92
28 64 105
30 65 102
20 58 95
40 83 119
106 115 182
139 129 210
147 130 212
144 128 211
143 128 211
141 130 210
139 128 208
136 126 207
119 112 196
73 83 178
64 75 169
89 91 205
144 117 234
151 119 237
114 96 213
47 69 147
60 78 167
67 81 177
65 79 176
78 85 189
78 83 193
90 99 200
143 111 216
79 90 186
91 101 198
69 92 160
37 77 115
34 76 102
26 71 96
37 85 105
44 97 109
52 97 111
35 74 109
115 127 198
138 151 195
169 161 212
156 149 208
146 139 213
151 144 228
177 165 236
187 174 238
195 181 242
154 132 225
30 63 112
69 110 151
73 89 133
24 63 99
31 67 107
26 62 98
22 61 95
75 101 158
123 121 197
132 124 202
135 127 205
139 126 207
140 127 210
141 130 209
138 128 208
136 124 207
118 111 197
72 82 175
61 74 167
87 89 204
144 118 233
153 118 236
114 98 212
51 76 149
63 81 168
68 81 177
67 80 178
76 84 190
81 86 196
81 86 195
107 95 206
91 105 200
80 99 170
38 86 111
25 71 92
37 85 107
27 71 97
31 80 100
42 93 108
47 94 113
104 114 194
154 146 219
155 158 199
164 155 212
137 134 216
139 136 228
157 149 233
179 167 237
187 173 239
197 182 243
182 159 238
49 69 137
39 88 122
85 97 145
27 67 101
35 69 107
25 62 97
27 71 103
107 115 188
139 127 208
142 127 207
139 127 204
134 124 200
127 124 193
130 126 196
130 124 201
132 123 204
116 108 198
69 80 175
62 75 169
86 93 202
144 120 233
154 120 237
114 95 213
49 74 148
62 81 168
68 83 176
67 80 178
76 82 191
83 87 201
102 94 192
67 92 161
96 110 185
54 95 128
46 99 105
27 69 92
39 82 105
21 67 92
42 95 109
30 78 95
82 103 169
154 141 218
151 148 213
163 149 209
101 107 192
99 110 196
138 138 225
154 143 234
170 157 236
177 162 237
189 171 241
169 147 229
48 67 136
23 71 101
95 111 161
34 73 106
35 68 104
26 64 98
52 91 132
116 118 194
142 125 210
140 125 207
143 128 208
143 127 206
135 125 199
130 126 193
126 125 191
122 123 190
109 108 187
68 79 174
62 73 168
83 89 202
144 117 235
155 121 238
117 97 214
50 73 150
62 80 169
66 78 178
64 76 177
77 89 185
108 105 212
112 101 200
70 95 151
49 85 125
54 110 118
45 100 109
42 83 100
31 82 99
27 65 92
29 76 97
56 89 140
147 137 216
174 159 218
137 127 195
71 81 173
71 85 169
58 77 159
70 89 186
123 125 226
158 150 236
173 156 236
105 100 186
51 74 146
45 67 141
24 66 96
98 115 171
34 71 107
29 63 99
25 65 96
81 106 164
124 119 202
138 123 211
135 121 208
135 122 207
138 122 206
134 122 203
136 127 201
134 129 197
126 127 188
105 110 178
70 82 174
53 70 156
77 85 195
146 117 235
157 121 238
116 94 215
47 69 151
61 75 171
64 75 176
58 72 167
120 117 204
122 107 221
81 92 162
34 82 100
50 100 111
53 111 117
49 91 103
34 83 101
26 66 90
36 80 102
25 71 98
119 125 200
171 160 221
155 135 203
36 62 128
37 70 122
62 105 141
99 109 158
70 87 192
100 108 220
162 158 240
121 111 179
41 80 117
70 93 148
21 58 104
25 67 100
94 116 172
43 74 113
24 61 97
27 70 101
106 115 190
135 123 209
134 121 208
130 119 207
132 121 208
133 121 206
131 121 202
129 125 196
125 124 189
116 121 180
106 110 175
64 78 167
51 69 152
74 84 193
147 118 235
160 124 239
119 97 217
54 72 161
69 78 183
69 77 170
64 93 153
117 132 192
98 107 148
45 99 105
47 95 105
48 105 111
70 132 130
68 106 114
19 63 90
24 65 96
17 58 84
70 99 156
156 151 215
158 141 207
94 102 204
96 104 199
80 100 186
117 137 199
141 141 219
90 96 207
94 104 216
175 173 239
118 120 198
98 123 181
73 85 160
26 59 112
32 72 103
98 120 170
45 76 115
25 62 97
48 84 129
119 119 197
136 121 207
131 120 204
133 123 204
131 121 205
130 119 203
125 118 197
119 120 187
120 121 186
143 127 204
145 118 208
68 79 171
44 65 143
68 82 187
146 119 234
162 126 241
123 97 220
53 68 162
69 77 185
82 97 192
103 129 178
61 101 121
32 86 98
71 131 127
53 97 105
46 107 110
75 133 128
74 115 120
22 63 92
21 64 91
37 74 113
126 128 206
157 140 201
74 84 192
107 117 219
125 128 225
128 128 223
129 133 222
136 139 223
107 111 215
91 102 217
167 173 236
159 149 223
108 111 213
79 88 189
38 62 129
30 68 107
104 127 177
37 67 106
23 59 95
73 97 158
125 121 201
133 122 206
130 122 202
129 120 202
128 120 200
125 119 196
118 117 186
129 124 197
175 134 228
180 131 232
155 117 213
60 76 161
39 64 132
66 82 182
145 118 234
160 124 239
121 97 219
52 69 159
73 92 183
95 128 181
75 118 135
45 94 109
62 121 122
79 124 126
25 68 88
30 81 96
58 98 115
67 98 140
42 72 104
18 64 83
83 105 172
166 151 210
55 72 135
80 90 206
103 110 221
130 130 229
151 145 233
153 144 231
142 133 228
114 115 221
94 99 217
153 163 234
170 155 227
118 118 220
91 99 211
42 67 130
33 67 111
93 120 175
39 64 105
22 60 99
99 108 186
135 123 207
133 123 204
130 122 201
128 121 199
125 120 195
120 118 188
122 120 193
178 132 233
186 132 236
183 136 233
161 126 209
51 72 147
33 65 120
63 82 179
142 119 232
154 121 236
119 96 220
51 77 156
80 102 180
83 119 158
76 125 141
57 108 114
61 124 116
73 115 120
29 71 95
19 64 87
39 70 115
76 104 159
73 85 139
31 71 111
134 138 207
95 96 130
34 67 136
80 89 206
98 104 221
119 121 228
140 135 232
147 137 233
131 121 228
102 104 218
89 93 214
137 150 230
174 159 229
119 119 220
92 97 207
32 65 110
34 65 113
80 111 165
56 78 118
37 73 120
119 114 200
139 122 209
133 121 204
129 121 199
125 120 195
122 118 192
115 115 184
161 126 225
183 127 238
188 138 236
198 156 236
166 131 206
46 74 135
30 61 115
57 77 174
142 121 233
155 122 238
121 94 221
51 77 155
83 114 177
67 107 147
69 122 132
57 116 116
68 126 118
86 128 127
26 69 91
22 69 95
64 87 149
74 89 149
25 63 94
83 98 166
131 123 178
14 56 83
45 70 149
77 86 203
94 100 220
111 114 226
123 121 228
133 127 229
121 115 223
90 95 212
92 96 215
119 131 227
179 163 232
114 115 218
82 88 182
21 64 94
37 64 117
66 100 152
73 87 132
59 86 147
127 116 205
134 119 206
131 118 202
130 121 199
126 120 195
120 116 189
129 119 202
184 128 239
186 136 238
200 154 238
200 159 236
170 138 208
48 73 138
35 62 127
72 88 187
141 120 232
154 124 238
123 101 222
56 78 156
68 90 177
58 102 139
64 110 125
61 116 117
59 120 115
88 143 138
46 78 99
39 70 108
40 88 108
39 72 104
57 91 134
151 140 205
46 67 104
17 57 92
56 78 162
77 83 206
91 96 220
106 110 226
117 117 227
126 123 228
121 116 224
92 93 212
75 83 196
100 114 216
149 137 225
108 110 214
52 75 130
24 67 97
37 63 119
50 90 137
88 96 146
88 97 181
133 121 206
132 120 203
129 121 200
128 120 197
125 117 194
117 115 187
154 124 224
186 130 240
196 151 239
201 160 237
203 165 236
170 138 208
47 69 144
36 65 134
92 105 198
141 119 232
153 124 239
126 101 223
51 70 152
73 97 181
57 100 130
60 111 121
43 91 101
58 117 117
85 141 134
75 115 127
59 84 131
42 87 115
121 134 186
97 103 174
77 89 125
26 64 99
25 62 99
64 86 165
80 87 208
91 94 219
102 105 224
109 113 225
121 121 227
124 121 225
116 115 221
141 138 227
167 160 231
138 130 222
98 102 193
28 68 91
31 71 108
43 67 125
33 76 120
99 106 167
111 104 204
135 121 206
131 121 202
128 120 198
126 119 195
124 118 192
115 112 187
170 124 235
193 143 241
200 155 240
201 158 238
204 166 237
172 141 208
43 66 140
35 64 131
90 105 194
143 121 231
155 125 238
128 100 224
51 77 154
78 103 180
55 100 126
53 97 110
42 94 102
60 113 119
57 112 115
90 139 142
57 93 126
126 145 192
124 115 183
79 92 139
27 63 104
24 60 104
30 62 108
55 80 151
73 83 204
91 92 220
100 102 224
103 104 224
99 98 216
107 106 219
109 108 219
130 128 227
140 135 225
113 115 211
65 85 138
25 67 90
37 70 116
42 66 126
24 68 107
108 113 187
121 106 208
135 120 204
129 119 200
128 121 196
126 120 194
122 115 193
114 111 188
180 131 239
201 154 242
202 156 240
203 162 237
206 172 237
172 141 204
33 62 126
37 68 132
94 107 196
147 122 233
159 124 238
127 114 219
73 96 164
80 111 181
56 97 121
28 78 93
44 100 104
88 142 135
72 128 127
67 119 121
96 117 188
149 147 206
101 104 173
37 68 97
23 59 99
24 60 104
31 64 110
46 73 133
62 75 184
85 86 211
92 96 219
109 107 224
88 89 209
73 83 212
87 104 217
112 127 224
106 120 215
100 102 196
28 65 93
23 62 95
37 68 119
40 66 126
30 68 109
113 118 200
128 111 209
136 120 203
132 120 200
129 120 194
127 120 193
122 117 191
115 110 192
194 148 242
205 159 241
204 161 240
207 168 238
207 169 238
169 135 199
29 62 115
39 69 133
88 98 194
145 121 232
160 125 238
129 111 220
50 85 151
81 105 163
58 100 118
32 86 95
51 115 113
105 150 139
76 131 125
94 143 142
98 135 177
147 135 212
60 80 112
29 68 99
27 65 96
30 66 103
34 66 111
40 70 120
46 68 150
70 78 192
86 91 210
99 104 219
103 104 220
93 96 216
92 99 218
99 111 222
111 117 216
56 74 130
23 64 91
28 63 102
37 67 122
45 68 132
34 68 113
116 121 203
132 116 205
136 121 201
135 122 201
133 122 196
128 121 190
121 116 185
114 111 189
206 161 245
208 163 242
209 169 242
205 159 239
201 155 238
166 129 197
24 59 105
49 74 145
89 94 198
141 120 231
157 124 237
127 102 222
48 78 148
64 98 139
50 92 112
36 84 95
43 107 110
81 129 125
102 154 141
86 134 145
81 121 157
93 102 141
27 69 91
30 66 103
25 63 96
24 62 98
29 62 108
28 62 108
35 62 121
42 63 150
72 81 197
96 102 214
107 112 219
122 125 225
136 134 229
137 133 227
104 102 187
25 66 96
29 69 95
30 62 104
42 73 128
51 71 137
39 69 120
118 124 201
133 119 201
136 124 198
133 125 195
133 124 194
128 123 186
119 117 178
118 118 186
211 166 245
207 161 243
207 164 242
204 159 241
200 155 241
160 123 197
22 62 96
38 69 127
87 93 198
142 120 231
155 124 236
125 101 219
69 96 151
52 88 116
45 88 112
37 82 101
31 95 96
91 132 131
74 132 127
97 152 139
109 147 158
70 100 115
27 70 88
36 68 113
27 64 98
26 64 97
24 62 99
31 65 108
34 66 113
34 62 123
48 72 154
77 91 186
98 107 206
118 124 220
136 135 226
131 130 220
88 94 161
33 75 92
35 74 98
29 64 99
49 77 133
56 76 139
46 72 127
117 121 199
109 105 182
119 117 187
126 124 189
129 125 190
124 122 181
114 115 171
135 127 199
211 161 245
205 155 243
203 155 244
182 136 232
111 94 173
46 68 117
21 62 91
28 62 112
64 80 173
138 120 230
150 124 234
135 122 219
79 98 147
47 80 102
38 84 108
38 86 105
41 91 103
90 140 137
69 124 121
94 140 130
93 142 138
100 138 153
58 92 103
37 69 116
30 68 100
25 65 96
25 63 96
29 65 103
28 62 105
51 75 154
88 95 202
95 100 207
105 107 211
114 115 217
116 116 216
141 134 223
180 161 229
156 147 193
83 100 127
24 64 88
51 79 131
53 78 135
47 76 131
114 115 197
100 101 181
93 98 175
87 97 166
92 99 167
100 107 166
99 106 160
147 131 213
201 146 245
201 153 244
181 135 231
76 79 142
29 64 110
52 77 137
47 74 118
56 73 132
44 71 150
135 118 230
149 123 235
127 111 221
99 111 163
20 63 81
38 91 107
53 100 113
60 102 115
49 101 111
77 126 127
64 119 116
101 154 145
98 133 144
74 112 129
39 71 106
31 67 104
26 67 94
32 68 100
29 67 102
38 67 116
49 75 145
84 90 200
93 100 205
105 106 216
105 107 216
117 116 219
149 135 225
174 150 230
184 159 234
194 168 239
148 138 175
48 75 118
42 70 124
39 74 127
122 119 202
124 117 194
117 117 186
107 110 180
91 99 167
78 90 154
87 85 171
136 122 213
202 151 245
191 139 236
74 77 143
46 70 133
57 76 149
68 92 153
118 130 166
112 113 162
45 71 146
139 120 231
155 123 236
135 123 229
84 96 136
22 65 88
34 76 100
29 76 97
45 87 105
32 81 94
54 104 109
53 109 111
89 143 140
112 153 149
89 120 143
59 92 114
32 70 104
28 68 95
33 70 103
32 68 106
59 76 155
44 74 137
85 93 200
97 102 214
105 105 218
107 108 219
124 117 223
141 128 225
158 138 228
172 146 233
188 160 239
199 179 243
156 141 187
30 62 109
37 77 128
124 114 199
127 118 193
123 118 191
119 119 186
112 115 177
103 106 172
103 84 195
178 143 238
206 153 246
141 104 199
49 74 140
65 81 160
73 83 166
64 86 148
110 135 162
143 137 177
42 69 137
141 120 232
157 124 237
131 106 226
69 90 127
24 68 88
28 70 92
30 83 100
56 90 110
25 74 92
44 95 106
67 122 123
66 121 120
120 166 161
55 95 111
97 117 134
28 65 108
30 64 98
31 68 101
27 64 109
70 76 181
41 71 135
89 91 213
98 99 218
105 102 219
109 107 220
119 113 223
134 122 224
150 134 226
166 144 229
183 157 236
197 177 241
208 189 243
83 88 129
37 74 130
124 113 198
126 114 196
123 116 191
117 116 185
113 114 178
105 103 183
151 117 226
203 153 246
200 141 243
86 80 169
64 81 162
76 84 172
64 81 159
61 82 134
67 108 134
147 140 179
38 65 133
142 117 233
159 123 237
134 105 229
60 86 117
25 67 89
20 65 87
54 108 117
40 75 94
31 72 96
25 72 88
47 105 110
69 122 118
117 163 159
92 135 141
88 111 123
32 65 111
31 65 103
27 65 99
41 69 140
82 83 197
49 73 147
92 93 216
101 98 220
102 98 219
106 103 220
115 109 221
129 120 223
142 130 225
161 143 228
180 158 233
195 177 239
204 189 241
161 140 187
44 74 137
126 116 197
126 115 194
121 114 189
115 113 182
107 108 173
135 122 212
202 151 246
209 157 247
163 109 223
63 73 165
74 82 178
69 81 163
73 89 161
58 80 125
48 94 118
151 145 182
45 67 135
140 117 233
156 124 232
134 114 223
56 87 116
21 64 87
28 73 94
36 81 101
37 76 97
30 71 94
25 72 89
40 89 101
69 127 123
101 145 145
72 108 123
59 93 118
56 89 123
44 73 115
26 62 106
64 78 179
87 86 194
56 78 161
95 94 217
104 102 221
102 96 220
102 98 220
111 106 220
124 117 222
136 126 223
154 138 226
177 156 230
191 176 236
200 185 240
204 177 232
68 80 151
127 117 194
123 114 190
120 113 187
117 114 181
107 106 174
152 127 226
200 145 246
205 148 246
112 86 203
68 76 173
72 79 174
65 81 159
72 90 154
52 76 120
38 86 108
151 147 181
55 74 142
137 114 231
157 122 235
136 114 226
65 88 130
23 68 88
34 75 98
30 75 93
34 75 96
33 75 94
31 79 94
48 97 105
59 114 112
81 126 124
88 134 136
43 75 102
28 63 100
26 61 97
33 63 126
78 85 197
73 80 170
74 87 186
102 102 220
107 103 223
104 98 221
102 96 219
108 103 220
120 112 221
130 121 223
145 130 224
170 149 228
186 171 233
197 184 239
204 187 240
128 111 197
109 106 178
119 114 186
125 118 188
121 116 181
115 109 187
124 98 211
178 135 239
191 126 239
83 79 188
64 77 166
55 74 152
72 87 160
66 87 147
55 78 122
27 76 98
156 153 187
65 77 148
131 111 228
157 122 235
136 105 227
68 93 136
22 65 87
24 69 88
35 77 96
38 79 99
24 66 89
27 74 91
53 109 111
77 116 120
48 94 107
61 102 121
26 59 94
21 58 92
20 57 98
57 73 163
83 84 199
51 72 142
93 93 211
103 101 220
108 103 223
107 99 223
102 94 220
106 99 219
115 107 222
125 115 222
141 125 223
159 140 226
181 166 230
196 183 237
204 189 241
154 133 201
55 72 140
62 77 145
75 87 151
91 100 160
123 108 199
122 94 205
187 144 243
149 97 219
55 70 154
55 73 152
64 84 154
66 86 149
71 92 147
34 63 104
19 67 90
162 159 195
84 88 154
129 111 226
158 121 234
135 106 216
60 90 128
25 68 90
26 69 91
29 72 91
36 78 100
31 72 94
24 66 87
31 78 94
81 137 132
90 134 140
44 76 102
20 58 89
16 55 86
33 63 127
76 79 193
57 68 151
64 80 175
100 95 218
104 100 220
106 102 223
109 102 224
104 96 222
103 95 220
109 101 220
120 109 222
132 120 222
151 133 225
174 157 228
191 178 234
201 188 238
191 164 223
69 83 154
71 81 154
49 71 128
24 59 93
83 93 170
168 113 230
193 129 243
70 69 152
41 67 134
60 84 151
64 83 144
67 90 149
66 85 137
33 63 112
49 79 127
160 160 192
100 98 163
128 111 224
160 123 236
131 106 209
56 85 120
26 67 89
25 68 91
29 71 91
41 84 101
42 85 103
32 78 96
40 83 99
45 98 108
80 122 129
31 66 91
19 58 85
22 58 103
52 67 152
50 66 146
54 72 162
92 89 211
101 94 219
104 98 221
106 101 222
110 102 223
109 101 223
106 99 220
107 97 219
114 103 221
126 115 222
142 127 224
161 146 226
183 171 230
198 186 236
204 185 240
90 89 156
79 86 159
70 83 148
53 75 130
92 98 184
178 120 232
82 76 159
35 65 121
53 78 143
66 84 144
51 78 134
81 102 155
57 79 128
39 70 115
78 101 149
149 155 187
113 108 170
125 109 224
161 126 238
137 108 211
34 73 97
25 68 89
32 77 98
35 78 95
43 86 102
53 110 117
45 91 101
49 91 103
53 104 113
86 128 134
29 66 87
20 57 90
28 58 118
52 69 154
76 82 193
89 88 208
93 87 212
99 94 217
101 95 220
106 100 222
110 103 222
112 105 223
112 103 222
110 99 221
112 103 220
122 112 221
136 124 223
155 140 225
174 160 227
192 180 233
203 189 238
124 112 174
73 85 148
84 95 157
85 93 166
84 88 182
80 83 164
59 76 150
51 75 141
69 86 145
46 70 125
73 98 153
84 101 149
41 68 114
29 62 100
47 79 117
164 167 209
150 129 195
125 108 224
160 125 238
126 108 195
29 69 93
29 72 93
36 80 105
40 84 101
51 96 109
49 102 113
67 110 119
53 97 110
46 90 109
50 101 112
45 82 103
28 56 124
61 69 180
81 78 201
87 83 207
91 85 210
95 88 215
96 89 218
100 93 221
104 97 222
108 101 223
112 105 224
114 106 223
116 106 223
117 106 222
122 110 223
134 121 224
148 134 224
166 152 225
186 173 230
197 185 234
160 143 198
67 81 141
85 96 158
93 92 185
85 84 189
87 85 193
71 82 167
64 87 142
55 76 131
63 88 147
96 110 162
55 76 121
30 62 104
40 66 120
30 67 97
